<mxfile host="app.diagrams.net" agent="Mozilla/5.0 (Windows NT 10.0; Win64; x64) AppleWebKit/537.36 (KHTML, like Gecko) Chrome/141.0.0.0 Safari/537.36" version="28.2.8">
  <diagram name="Parking System HLD" id="parking-hld">
    <mxGraphModel dx="1042" dy="1354" grid="1" gridSize="10" guides="1" tooltips="1" connect="1" arrows="1" fold="1" page="1" pageScale="1" pageWidth="1169" pageHeight="827" math="0" shadow="0">
      <root>
        <mxCell id="0" />
        <mxCell id="1" parent="0" />
        <mxCell id="2" value="Client (Browser / Swagger UI)" style="shape=ellipse;fillColor=#dae8fc;strokeColor=#6c8ebf;" parent="1" vertex="1">
          <mxGeometry x="40" y="120" width="160" height="80" as="geometry" />
        </mxCell>
        <mxCell id="3" value="User Service" style="shape=rectangle;rounded=1;fillColor=#d5e8d4;strokeColor=#82b366;" parent="1" vertex="1">
          <mxGeometry x="280" y="40" width="160" height="80" as="geometry" />
        </mxCell>
        <mxCell id="4" value="Booking Service" style="shape=rectangle;rounded=1;fillColor=#ffe6cc;strokeColor=#d79b00;" parent="1" vertex="1">
          <mxGeometry x="280" y="160" width="160" height="80" as="geometry" />
        </mxCell>
        <mxCell id="5" value="Payment Service" style="shape=rectangle;rounded=1;fillColor=#fff2cc;strokeColor=#d6b656;" parent="1" vertex="1">
          <mxGeometry x="280" y="280" width="160" height="80" as="geometry" />
        </mxCell>
        <mxCell id="6" value="Notification Service" style="shape=rectangle;rounded=1;fillColor=#f8cecc;strokeColor=#b85450;" parent="1" vertex="1">
          <mxGeometry x="280" y="400" width="160" height="80" as="geometry" />
        </mxCell>
        <mxCell id="7" value="RabbitMQ Exchange (booking.events)" style="shape=ellipse;fillColor=#e1d5e7;strokeColor=#9673a6;" parent="1" vertex="1">
          <mxGeometry x="560" y="220" width="180" height="100" as="geometry" />
        </mxCell>
        <mxCell id="8" value="Redis (Cache + Token Blacklist)" style="shape=ellipse;fillColor=#f5f5f5;strokeColor=#666666;" parent="1" vertex="1">
          <mxGeometry x="820" y="100" width="180" height="100" as="geometry" />
        </mxCell>
        <mxCell id="9" value="MySQL DB per Service" style="shape=cylinder;fillColor=#f5f5f5;strokeColor=#666666;" parent="1" vertex="1">
          <mxGeometry x="820" y="260" width="180" height="100" as="geometry" />
        </mxCell>
        <mxCell id="10" value="Eureka Service Discovery" style="shape=hexagon;fillColor=#dae8fc;strokeColor=#6c8ebf;" parent="1" vertex="1">
          <mxGeometry x="560" y="40" width="180" height="80" as="geometry" />
        </mxCell>
        <mxCell id="11" value="SMTP (Gmail)" style="shape=ellipse;fillColor=#fff2cc;strokeColor=#d6b656;" parent="1" vertex="1">
          <mxGeometry x="560" y="400" width="160" height="80" as="geometry" />
        </mxCell>
        <mxCell id="12" parent="1" source="2" target="3" edge="1">
          <mxGeometry relative="1" as="geometry" />
        </mxCell>
        <mxCell id="13" parent="1" source="2" target="4" edge="1">
          <mxGeometry relative="1" as="geometry" />
        </mxCell>
        <mxCell id="14" parent="1" source="2" target="5" edge="1">
          <mxGeometry relative="1" as="geometry" />
        </mxCell>
        <mxCell id="15" parent="1" source="2" target="6" edge="1">
          <mxGeometry relative="1" as="geometry" />
        </mxCell>
        <mxCell id="16" parent="1" source="3" target="7" edge="1">
          <mxGeometry relative="1" as="geometry" />
        </mxCell>
        <mxCell id="17" parent="1" source="4" target="7" edge="1">
          <mxGeometry relative="1" as="geometry" />
        </mxCell>
        <mxCell id="18" parent="1" source="5" target="7" edge="1">
          <mxGeometry relative="1" as="geometry" />
        </mxCell>
        <mxCell id="19" parent="1" source="6" target="7" edge="1">
          <mxGeometry relative="1" as="geometry" />
        </mxCell>
        <mxCell id="20" parent="1" source="3" target="8" edge="1">
          <mxGeometry relative="1" as="geometry" />
        </mxCell>
        <mxCell id="21" parent="1" source="4" target="8" edge="1">
          <mxGeometry relative="1" as="geometry" />
        </mxCell>
        <mxCell id="22" parent="1" source="5" target="8" edge="1">
          <mxGeometry relative="1" as="geometry" />
        </mxCell>
        <mxCell id="23" parent="1" source="3" target="9" edge="1">
          <mxGeometry relative="1" as="geometry" />
        </mxCell>
        <mxCell id="24" parent="1" source="4" target="9" edge="1">
          <mxGeometry relative="1" as="geometry" />
        </mxCell>
        <mxCell id="25" parent="1" source="5" target="9" edge="1">
          <mxGeometry relative="1" as="geometry" />
        </mxCell>
        <mxCell id="26" parent="1" source="6" target="9" edge="1">
          <mxGeometry relative="1" as="geometry" />
        </mxCell>
        <mxCell id="27" parent="1" source="3" target="10" edge="1">
          <mxGeometry relative="1" as="geometry" />
        </mxCell>
        <mxCell id="28" parent="1" source="4" target="10" edge="1">
          <mxGeometry relative="1" as="geometry" />
        </mxCell>
        <mxCell id="29" parent="1" source="5" target="10" edge="1">
          <mxGeometry relative="1" as="geometry" />
        </mxCell>
        <mxCell id="30" parent="1" source="6" target="10" edge="1">
          <mxGeometry relative="1" as="geometry" />
        </mxCell>
        <mxCell id="31" parent="1" source="6" target="11" edge="1">
          <mxGeometry relative="1" as="geometry" />
        </mxCell>
        <mxCell id="tR6oTbhnVZuZCCIrmcHs-31" value="Admin Service" style="shape=rectangle;rounded=1;fillColor=#d5e8d4;strokeColor=#82b366;" vertex="1" parent="1">
          <mxGeometry x="280" y="-90" width="160" height="80" as="geometry" />
        </mxCell>
        <mxCell id="tR6oTbhnVZuZCCIrmcHs-33" edge="1" parent="1">
          <mxGeometry relative="1" as="geometry">
            <mxPoint x="440" y="-50.5" as="sourcePoint" />
            <mxPoint x="630" y="30" as="targetPoint" />
          </mxGeometry>
        </mxCell>
        <mxCell id="tR6oTbhnVZuZCCIrmcHs-34" edge="1" parent="1">
          <mxGeometry relative="1" as="geometry">
            <mxPoint x="440" y="-80" as="sourcePoint" />
            <mxPoint x="890" y="90" as="targetPoint" />
          </mxGeometry>
        </mxCell>
        <mxCell id="tR6oTbhnVZuZCCIrmcHs-35" style="exitX=1;exitY=0.75;exitDx=0;exitDy=0;" edge="1" parent="1" source="tR6oTbhnVZuZCCIrmcHs-31" target="9">
          <mxGeometry relative="1" as="geometry">
            <mxPoint x="450" y="-20" as="sourcePoint" />
            <mxPoint x="900" y="150" as="targetPoint" />
          </mxGeometry>
        </mxCell>
        <mxCell id="tR6oTbhnVZuZCCIrmcHs-36" style="entryX=0.333;entryY=0;entryDx=0;entryDy=0;entryPerimeter=0;" edge="1" parent="1" target="7">
          <mxGeometry relative="1" as="geometry">
            <mxPoint x="410" y="-10" as="sourcePoint" />
            <mxPoint x="800" y="270" as="targetPoint" />
          </mxGeometry>
        </mxCell>
        <mxCell id="tR6oTbhnVZuZCCIrmcHs-37" style="entryX=-0.022;entryY=0.652;entryDx=0;entryDy=0;entryPerimeter=0;" edge="1" parent="1" target="tR6oTbhnVZuZCCIrmcHs-31">
          <mxGeometry relative="1" as="geometry">
            <mxPoint x="160" y="120" as="sourcePoint" />
            <mxPoint x="240" y="94" as="targetPoint" />
          </mxGeometry>
        </mxCell>
      </root>
    </mxGraphModel>
  </diagram>
</mxfile>
